<svg width="53" height="21" viewBox="0 0 53 21" fill="none" xmlns="http://www.w3.org/2000/svg">
<path fill-rule="evenodd" clip-rule="evenodd" d="M9.68461 2.70058C9.05338 3.4261 8.07388 3.97025 7.07262 3.88964C6.94202 2.94242 7.44265 1.91459 8.00858 1.28983C8.61805 0.564299 9.70637 0.0403071 10.5988 0C10.7076 1.00768 10.2941 1.97505 9.68461 2.70058Z" fill="white"/>
<path fill-rule="evenodd" clip-rule="evenodd" d="M10.577 4.09117C9.70637 4.03071 8.90101 4.33301 8.26978 4.57486C7.85622 4.73608 7.48619 4.87716 7.22499 4.87716C6.92026 4.87716 6.55023 4.73608 6.13666 4.57486C5.61426 4.37332 5.0048 4.13148 4.35181 4.15163C2.87168 4.17179 1.50039 4.97793 0.738562 6.26775C-0.806861 8.84741 0.324998 12.6564 1.82689 14.7524C2.56695 15.8004 3.45938 16.929 4.613 16.8887C5.11364 16.8685 5.48367 16.7274 5.87546 16.5662C6.31079 16.3848 6.76789 16.2035 7.48619 16.2035C8.16095 16.2035 8.59628 16.3848 9.03161 16.5662C9.40164 16.7274 9.77167 16.8887 10.3376 16.8685C11.5348 16.8484 12.2966 15.8205 13.0367 14.7927C13.8202 13.6843 14.1685 12.596 14.2338 12.4146V12.3944C14.2338 12.3944 14.212 12.3944 14.212 12.3743C13.9508 12.2534 11.9266 11.3666 11.9048 8.96833C11.883 6.95298 13.5155 5.92514 13.7767 5.76392C13.7985 5.76392 13.7985 5.74376 13.7985 5.74376C12.7537 4.29271 11.143 4.13148 10.577 4.09117Z" fill="white"/>
<path fill-rule="evenodd" clip-rule="evenodd" d="M24.9429 1.18906H18.8918V16.7678H21.395V11.4271H24.8559C28.0338 11.4271 30.254 9.33109 30.254 6.28791C30.254 3.24472 28.0773 1.18906 24.9429 1.18906ZM24.2899 9.41171H21.395V3.22457H24.2899C26.4666 3.22457 27.7073 4.35317 27.7073 6.30806C27.7073 8.26296 26.4666 9.41171 24.2899 9.41171Z" fill="white"/>
<path fill-rule="evenodd" clip-rule="evenodd" d="M36.1745 5.32054C33.519 5.32054 31.5382 6.79175 31.4729 8.8071H33.7366C33.9325 7.83973 34.8467 7.21497 36.1092 7.21497C37.6328 7.21497 38.5035 7.90019 38.5035 9.16987V10.0365L35.3691 10.2179C32.4524 10.3791 30.8852 11.5278 30.8852 13.5432C30.8852 15.5585 32.5177 16.9088 34.8467 16.9088C36.4139 16.9088 37.8723 16.143 38.547 14.9136H38.5906V16.7879H40.9196V9.00864C40.8978 6.77159 39.0477 5.32054 36.1745 5.32054ZM38.5035 12.5355C38.5035 13.9866 37.2193 15.0346 35.5215 15.0346C34.1937 15.0346 33.3448 14.4098 33.3448 13.4626C33.3448 12.475 34.172 11.9107 35.7174 11.8301L38.5035 11.6689V12.5355Z" fill="white"/>
<path fill-rule="evenodd" clip-rule="evenodd" d="M48.6032 17.3724C47.6019 20.0931 46.4483 21 44.0104 21C43.8145 21 43.2051 20.9799 43.0527 20.9395V19.0653C43.2051 19.0854 43.5969 19.1056 43.7928 19.1056C44.9029 19.1056 45.5123 18.6622 45.9041 17.4933L46.1218 16.8081L41.8773 5.46161H44.4893L47.4495 14.6516H47.4931L50.4533 5.46161H53L48.6032 17.3724Z" fill="white"/>
</svg>
