<svg width="51" height="21" viewBox="0 0 51 21" fill="none" xmlns="http://www.w3.org/2000/svg">
<path fill-rule="evenodd" clip-rule="evenodd" d="M29.9691 2.39291C29.1068 1.50383 27.908 1.03812 26.6672 1.05928H21.5567V16.3854H23.4915V10.183H26.6672C27.9711 10.183 29.0858 9.73844 29.9691 8.87052L30.1794 8.65883C31.8408 6.8595 31.7146 4.06523 29.9691 2.39291ZM28.6231 7.49456C28.1394 8.02377 27.4454 8.32014 26.7093 8.29897H23.4915V2.9433H26.7303C27.4243 2.9433 28.0763 3.21849 28.581 3.70537C29.6115 4.72146 29.6326 6.43612 28.6231 7.49456Z" fill="white"/>
<path fill-rule="evenodd" clip-rule="evenodd" d="M35.8157 5.56821C33.986 5.56821 32.5979 6.24561 31.6936 7.6004L33.3971 8.68C34.028 7.74858 34.8693 7.28287 35.9419 7.28287C36.6148 7.28287 37.2878 7.53689 37.7926 8.00261C38.2973 8.46832 38.5918 9.10338 38.5918 9.75961V10.2041C37.8557 9.78077 36.9093 9.56909 35.7736 9.56909C34.4276 9.56909 33.3551 9.88662 32.5559 10.5428C31.7357 11.1991 31.3361 12.0458 31.3361 13.1466C31.3151 14.1415 31.7146 15.0729 32.4718 15.708C33.2289 16.3854 34.1753 16.7453 35.3109 16.7453C36.6359 16.7453 37.6874 16.1525 38.4866 14.9459H38.5707V16.4066H40.4214V9.92895C40.4214 8.57416 40.0219 7.49456 39.1806 6.73249C38.3394 5.97041 37.2247 5.56821 35.8157 5.56821ZM37.6243 14.0568C37.0355 14.6496 36.2573 14.9671 35.4581 14.9671C34.9113 14.9883 34.3856 14.7977 33.9439 14.459C33.5443 14.1627 33.313 13.697 33.313 13.1678C33.313 12.5962 33.5864 12.1093 34.0911 11.7283C34.6169 11.3684 35.2899 11.1779 36.068 11.1779C37.1406 11.1567 37.9819 11.4108 38.5918 11.8976C38.5707 12.7232 38.2553 13.443 37.6243 14.0568Z" fill="white"/>
<path fill-rule="evenodd" clip-rule="evenodd" d="M48.9179 5.90691L45.9315 13.443H45.8895L42.84 5.90691H40.7369L44.9641 15.7292L42.5666 21.0002H44.5645L51 5.90691H48.9179Z" fill="white"/>
<path d="M16.8998 9.00123C16.8998 8.40202 16.8519 7.80281 16.7561 7.21582H8.62494V10.6032H13.2833C13.0917 11.6916 12.469 12.6699 11.5589 13.2813V15.4825H14.3371C15.9657 13.9539 16.8998 11.6916 16.8998 9.00123Z" fill="#4285F4"/>
<path d="M8.62528 17.6099C10.9485 17.6099 12.9124 16.8272 14.3374 15.4821L11.5592 13.2809C10.7808 13.8189 9.78687 14.1246 8.62528 14.1246C6.37394 14.1246 4.46989 12.5716 3.7873 10.4927H0.925232V12.7672C2.38621 15.7389 5.36803 17.6099 8.62528 17.6099Z" fill="#34A853"/>
<path d="M3.78776 10.493C3.42844 9.4046 3.42844 8.2184 3.78776 7.11781V4.85547H0.925231C-0.30841 7.33793 -0.30841 10.2729 0.925231 12.7553L3.78776 10.493Z" fill="#FBBC04"/>
<path d="M8.62528 3.48576C9.85872 3.4613 11.0443 3.93823 11.9304 4.80648L14.3973 2.28733C12.8286 0.795408 10.7688 -0.0239255 8.62528 0.000532212C5.36803 0.000532212 2.38621 1.88378 0.925232 4.85539L3.7873 7.12996C4.46989 5.03882 6.37394 3.48576 8.62528 3.48576Z" fill="#EA4335"/>
</svg>
