<svg width="54" height="17" viewBox="0 0 54 17" fill="none" xmlns="http://www.w3.org/2000/svg">
<path fill-rule="evenodd" clip-rule="evenodd" d="M15.975 0.382385L11.295 11.5353L9.4725 2.01814C9.3375 1.12591 8.5725 0.361142 7.515 0.361142H0V0.870989C1.5525 1.12591 2.9925 1.63576 4.275 2.27307C4.7925 2.52799 5.1525 3.05908 5.31 3.67515L8.82 16.8674H13.5L20.52 0.382385H15.975Z" fill="white"/>
<path fill-rule="evenodd" clip-rule="evenodd" d="M22.32 0.382385L18.6975 16.8674H23.1075L26.7525 0.382385H22.32Z" fill="white"/>
<path fill-rule="evenodd" clip-rule="evenodd" d="M32.445 4.94976C32.58 4.05753 33.345 3.54769 34.2675 3.54769C35.685 3.42022 37.26 3.67515 38.5425 4.31246L39.33 0.764771C38.025 0.254924 36.6075 0 35.3025 0C31.0275 0 27.9 2.27307 27.9 5.45961C27.9 7.86014 30.105 9.13476 31.6575 9.89953C33.345 10.6643 33.9975 11.1741 33.8625 11.9177C33.8625 13.0648 32.5575 13.5747 31.275 13.5747C29.7225 13.5747 28.1475 13.1923 26.73 12.555L25.9425 16.1027C27.5175 16.74 29.205 16.9949 30.7575 16.9949C35.55 17.1224 38.5425 14.8493 38.5425 11.4078C38.565 7.09537 32.445 6.84045 32.445 4.94976Z" fill="white"/>
<path fill-rule="evenodd" clip-rule="evenodd" d="M50.49 0.382385H46.7325C45.945 0.382385 45.18 0.892232 44.91 1.657L38.43 16.8674H42.975L43.875 14.4669H49.455L49.9725 16.8674H54L50.49 0.382385ZM45.045 11.0254L47.385 4.8223L48.69 11.0254H45.045Z" fill="white"/>
</svg>
